#!OML:ASF F:\VICON\USERDATA\INSTALL\SteveWalk\SteveWalk.ASF
:FULLY-SPECIFIED
:DEGREES


305
root 0.424987 16.2419 18.8897 17.5561 -1.72122 3.27133
lowerback -14.8832 -0.464772 -6.14913
upperback -5.5573 0.329387 -2.21361
thorax 2.42243 0.199196 1.20141
lowerneck -5.35608 -0.973847 -1.02578
upperneck 10.1258 -1.6065 3.69414
head 4.34607 -0.654468 1.3417
rclavicle 3.44457e-015 -4.77083e-015
rhumerus -36.9478 -6.61753 -86.9434
rradius 29.6734
rwrist -5.81618
rhand -16.685 -31.5733
rfingers 7.12502
rthumb 9.5393 -61.3373
lclavicle 3.44457e-015 -4.77083e-015
lhumerus -49.4512 32.804 55.3242
lradius 14.0151
lwrist -22.678
lhand -15.7672 -10.351
lfingers 7.12502
lthumb 10.4247 19.3705
rfemur -32.9254 -4.18101 16.6144
rtibia 76.328
rfoot 0.0467625 4.84588
rtoes -0.641054
lfemur -36.7429 -0.0916693 -27.2343
ltibia 36.4067
lfoot -16.5378 -4.41301
ltoes -6.46612
306
root 0.430994 16.2639 19.0837 17.472 -1.65642 3.04404
lowerback -14.9545 -0.474016 -5.90576
upperback -5.43524 0.289783 -2.06807
thorax 2.59457 0.172352 1.21147
lowerneck -5.32341 -0.94282 -1.17552
upperneck 10.1571 -1.55309 3.70961
head 4.35157 -0.63328 1.37719
rclavicle 4.18069e-015 3.57812e-015
rhumerus -37.4071 -7.70213 -86.1925
rradius 27.9435
rwrist -4.35183
rhand -16.2931 -32.1105
rfingers 7.12502
rthumb 9.91737 -61.8569
lclavicle 4.18069e-015 3.57812e-015
lhumerus -47.0677 31.7916 58.1169
lradius 14.5532
lwrist -21.36
lhand -16.1854 -10.3163
lfingers 7.12502
lthumb 10.0213 19.4251
rfemur -34.3962 -4.0011 17.0038
rtibia 76.3653
rfoot -0.989479 4.34511
rtoes -1.18475
lfemur -35.7064 0.0711647 -27.0351
ltibia 36.1496
lfoot -17.2197 -4.11923
ltoes -8.58257
307
root 0.432841 16.2832 19.2732 17.3073 -1.56939 3.11308
lowerback -14.8021 -0.542188 -6.03709
upperback -5.36383 0.206506 -1.97275
thorax 2.59176 0.131625 1.37123
lowerneck -5.26721 -0.953017 -1.33051
upperneck 10.2613 -1.55061 3.66347
head 4.37924 -0.640077 1.3905
rclavicle 2.91188e-015 -1.98785e-015
rhumerus -38.1342 -8.90634 -85.2718
rradius 26.4454
rwrist -2.88496
rhand -15.886 -32.7367
rfingers 7.12502
rthumb 10.3101 -62.464
lclavicle 2.91188e-015 -1.98785e-015
lhumerus -44.6867 30.0975 61.1886
lradius 15.2443
lwrist -19.2037
lhand -16.6039 -10.8565
lfingers 7.12502
lthumb 9.61756 18.904
rfemur -35.7018 -3.9394 17.1171
rtibia 76.2135
rfoot -1.99706 3.80226
rtoes -4.71435
lfemur -34.7047 0.201351 -27.1217
ltibia 35.8783
lfoot -18.1224 -3.97235
ltoes -11.191
308
root 0.428067 16.2952 19.4618 17.226 -1.52023 3.05083
lowerback -14.6547 -0.623859 -6.13681
upperback -5.37355 0.0943244 -1.81237
thorax 2.5085 0.0802075 1.57696
lowerneck -5.23581 -0.942148 -1.32129
upperneck 10.4796 -1.52144 3.45979
head 4.44771 -0.633909 1.32287
rclavicle 1.36338e-014 -1.19271e-015
rhumerus -38.8323 -10.434 -84.0842
rradius 24.6969
rwrist -0.993847
rhand -15.6796 -32.7555
rfingers 7.12502
rthumb 10.5092 -62.4728
lclavicle 1.36338e-014 -1.19271e-015
lhumerus -42.4942 28.4603 63.8372
lradius 15.7666
lwrist -17.0826
lhand -16.9503 -11.2138
lfingers 7.12502
lthumb 9.28329 18.5618
rfemur -37.0194 -3.72492 17.4198
rtibia 75.8596
rfoot -3.0107 3.20181
rtoes -6.10675
lfemur -33.8907 0.458465 -27.0729
ltibia 35.5982
lfoot -19.2288 -3.80665
ltoes -13.8061
309
root 0.435434 16.3067 19.656 17.1591 -1.20008 2.84043
lowerback -14.6132 -0.741406 -5.83995
upperback -5.34603 -0.10908 -1.65925
thorax 2.53178 -0.0228673 1.53757
lowerneck -5.27201 -0.913412 -1.29411
upperneck 10.7212 -1.47649 3.31871
head 4.53905 -0.615649 1.27444
rclavicle -4.41209e-015 2.94201e-014
rhumerus -39.4513 -12.0596 -82.78
rradius 22.8267
rwrist 1.1614
rhand -15.7661 -32.4455
rfingers 7.12502
rthumb 10.4258 -62.167
lclavicle -4.41209e-015 2.94201e-014
lhumerus -40.402 27.2547 65.93
lradius 16.1892
lwrist -15.7618
lhand -17.0568 -10.6167
lfingers 7.12502
lthumb 9.18053 19.1635
rfemur -38.1431 -3.77137 17.8528
rtibia 75.2641
rfoot -4.38381 2.76028
rtoes -3.88579
lfemur -32.992 0.57124 -26.8723
ltibia 35.3956
lfoot -20.0132 -3.90664
ltoes -14.3369
310
root 0.447742 16.316 19.8488 17.05 -0.854708 2.95526
lowerback -14.4387 -0.865363 -5.7841
upperback -5.37133 -0.295932 -1.61436
thorax 2.42465 -0.112555 1.52348
lowerneck -5.15457 -0.895327 -1.33259
upperneck 10.902 -1.44464 3.23605
head 4.57949 -0.605518 1.2563
rclavicle 2.57488e-015 -1.98785e-014
rhumerus -40.2915 -13.8377 -81.1635
rradius 21.0023
rwrist 3.56801
rhand -15.8036 -32.1046
rfingers 7.12502
rthumb 10.3896 -61.8279
lclavicle 2.57488e-015 -1.98785e-014
lhumerus -38.522 25.4005 68.2207
lradius 17.1917
lwrist -14.0457
lhand -16.8193 -9.8326
lfingers 7.12502
lthumb 9.40968 19.9373
rfemur -39.202 -4.04429 17.8929
rtibia 74.463
rfoot -5.8653 2.42415
rtoes -2.50148
lfemur -32.0124 0.552122 -27.0195
ltibia 35.351
lfoot -20.5199 -4.12083
ltoes -14.1899
311
root 0.44094 16.311 20.0319 16.9382 -0.837976 3.07522
lowerback -14.1216 -0.922182 -6.06641
upperback -5.49022 -0.366369 -1.52488
thorax 2.13366 -0.134855 1.76666
lowerneck -4.75718 -0.87662 -1.36837
upperneck 10.9531 -1.41118 3.16128
head 4.51577 -0.597253 1.23888
rclavicle -2.44132e-015 3.97569e-016
rhumerus -41.5053 -15.9436 -79.098
rradius 19.4243
rwrist 6.52104
rhand -15.4762 -31.8771
rfingers 7.12502
rthumb 10.7054 -61.5843
lclavicle -2.44132e-015 3.97569e-016
lhumerus -37.0195 22.86 70.6164
lradius 18.624
lwrist -11.2054
lhand -16.935 -9.90163
lfingers 7.12502
lthumb 9.29808 19.8733
rfemur -40.4044 -3.83292 17.9716
rtibia 73.5157
rfoot -7.23856 1.70785
rtoes -2.50966
lfemur -31.1106 0.929836 -27.1768
ltibia 35.3544
lfoot -20.8844 -4.43377
ltoes -14.2363
